# xmcd
#
# Track frame offsets:
#	150
#	17303
#	29361
#	43762
#	58778
#	71403
#	89099
#	100635
#	112133
#
# Disc length: 1738 seconds
#
# Revision: 0
# Processed by: cddbd v1.5.1PL2 Copyright (c) Steve Scherf et al.
# Submitted via: dBpowerAMP V4.0
#
DISCID=7306c809
DTITLE=Gerson Pereira dos Santos - A minha historia
DYEAR=2000
DGENRE=Pop-Folk
TTITLE0=Acordei pensando
TTITLE1=Mais uma noite
TTITLE2=Fique mais um poquinho
TTITLE3=Tristeza
TTITLE4=Cuidado
TTITLE5=Mulher
TTITLE6=Mulher dos meus sonhos
TTITLE7=A dona do meu coração
TTITLE8=Juizo
EXTD=
EXTT0=
EXTT1=
EXTT2=
EXTT3=
EXTT4=
EXTT5=
EXTT6=
EXTT7=
EXTT8=
PLAYORDER=
